<mxfile host="Electron" agent="Mozilla/5.0 (Windows NT 10.0; Win64; x64) AppleWebKit/537.36 (KHTML, like Gecko) draw.io/26.0.4 Chrome/128.0.6613.186 Electron/32.2.5 Safari/537.36" version="26.0.4">
  <diagram name="페이지-1" id="EyHc0Jf0ot6F0Xlt46oJ">
    <mxGraphModel dx="2261" dy="3182" grid="1" gridSize="10" guides="1" tooltips="1" connect="1" arrows="1" fold="1" page="1" pageScale="1" pageWidth="827" pageHeight="1169" math="0" shadow="0">
      <root>
        <mxCell id="0" />
        <mxCell id="1" parent="0" />
        <mxCell id="xNGF1B88-_GwdK6-crTJ-1" value="&lt;span&gt;&lt;/span&gt;&lt;span style=&quot;white-space:pre-wrap;&quot;&gt;[인증서비스]&lt;/span&gt;&lt;div&gt;&lt;span style=&quot;white-space-collapse: preserve;&quot;&gt;&lt;br&gt;&lt;/span&gt;&lt;/div&gt;&lt;div&gt;&lt;span style=&quot;white-space-collapse: preserve;&quot;&gt;&lt;br&gt;&lt;/span&gt;&lt;div&gt;&lt;span style=&quot;white-space:pre-wrap;&quot;&gt;[회원]&lt;/span&gt;&lt;/div&gt;&lt;div&gt;&lt;span style=&quot;white-space:pre-wrap;&quot;&gt;&lt;br&gt;회원은 로그인 할 수 있따&lt;br&gt;회원은 로그아웃 할 수 있다&lt;br&gt;회원은 회원탈퇴 할 수 있다 &lt;br&gt;회원은 개인정보 조회 및 수정 할 수 있다&lt;br&gt;회원은 판매자 계정 전환 할 수 있다&lt;br&gt;회원은 판매자 계정에서 일반 계정으로 전환 할 수 있다&lt;br&gt;&lt;br&gt;[비회원]&lt;/span&gt;&lt;/div&gt;&lt;div&gt;&lt;span style=&quot;white-space:pre-wrap;&quot;&gt;&lt;br&gt;비회원은 회원가입 할 수 있다&lt;/span&gt;&lt;div&gt;&lt;span style=&quot;white-space-collapse: preserve;&quot;&gt;&lt;br&gt;&lt;/span&gt;&lt;/div&gt;&lt;div&gt;&lt;span style=&quot;white-space-collapse: preserve;&quot;&gt;[판매자]&lt;/span&gt;&lt;/div&gt;&lt;div&gt;&lt;span style=&quot;white-space-collapse: preserve;&quot;&gt;&lt;br&gt;&lt;/span&gt;&lt;/div&gt;&lt;div&gt;&lt;span style=&quot;white-space-collapse: preserve;&quot;&gt;판매자는 로그인 할 수 있다.&lt;/span&gt;&lt;/div&gt;&lt;div&gt;&lt;span style=&quot;white-space-collapse: preserve;&quot;&gt;&lt;br&gt;&lt;/span&gt;&lt;/div&gt;&lt;div&gt;&lt;span style=&quot;white-space-collapse: preserve;&quot;&gt;판매자는 로그아웃 할 수 있다.&lt;/span&gt;&lt;/div&gt;&lt;div&gt;&lt;span style=&quot;white-space-collapse: preserve;&quot;&gt;&lt;br&gt;&lt;/span&gt;&lt;/div&gt;&lt;div&gt;&lt;span style=&quot;white-space-collapse: preserve;&quot;&gt;[관리자]&lt;/span&gt;&lt;/div&gt;&lt;div&gt;&lt;span style=&quot;white-space-collapse: preserve;&quot;&gt;&lt;br&gt;&lt;/span&gt;&lt;/div&gt;&lt;div&gt;&lt;span style=&quot;white-space-collapse: preserve;&quot;&gt;관리자는 로그인 할 수 있다.&lt;/span&gt;&lt;/div&gt;&lt;div&gt;&lt;span style=&quot;white-space-collapse: preserve;&quot;&gt;&lt;br&gt;&lt;/span&gt;&lt;/div&gt;&lt;div&gt;&lt;span style=&quot;white-space-collapse: preserve;&quot;&gt;관리자는 로그아웃 할 수 있다.&lt;/span&gt;&lt;/div&gt;&lt;div&gt;&lt;span style=&quot;white-space-collapse: preserve;&quot;&gt;&lt;br&gt;&lt;/span&gt;&lt;div&gt;&lt;span style=&quot;white-space:pre-wrap;&quot;&gt;&lt;br&gt;&lt;/span&gt;&lt;/div&gt;&lt;div&gt;&lt;span style=&quot;white-space:pre-wrap;&quot;&gt;--------------------------------------------------------------------------------------&lt;br&gt;&lt;/span&gt;&lt;/div&gt;&lt;div&gt;&lt;span style=&quot;white-space-collapse: preserve;&quot;&gt;&lt;br&gt;&lt;/span&gt;&lt;div&gt;&lt;span style=&quot;white-space:pre-wrap;&quot;&gt;[구매 서비스]&lt;/span&gt;&lt;/div&gt;&lt;div&gt;&lt;span style=&quot;white-space:pre-wrap;&quot;&gt;&lt;br&gt;&lt;/span&gt;&lt;/div&gt;&lt;div&gt;&lt;span style=&quot;white-space:pre-wrap;&quot;&gt;[회원]&lt;br&gt;회원은 재료 구매 가능&lt;br&gt;&lt;br&gt;&lt;/span&gt;&lt;/div&gt;&lt;div&gt;&lt;span style=&quot;white-space:pre-wrap;&quot;&gt;[비회원]&lt;/span&gt;&lt;/div&gt;&lt;div&gt;&lt;span style=&quot;white-space:pre-wrap;&quot;&gt;비회원도 재료 구매 가능.&lt;/span&gt;&lt;/div&gt;&lt;div&gt;&lt;span style=&quot;white-space:pre-wrap;&quot;&gt;&lt;br&gt;&lt;/span&gt;&lt;/div&gt;&lt;div&gt;&lt;br&gt;&lt;/div&gt;&lt;div&gt;&lt;span style=&quot;white-space:pre-wrap;&quot;&gt;----------------------------------------------------------------------------------------&lt;/span&gt;&lt;/div&gt;&lt;div&gt;&lt;span style=&quot;white-space:pre-wrap;&quot;&gt;&lt;br&gt;&lt;/span&gt;&lt;/div&gt;&lt;div&gt;&lt;br&gt;&lt;/div&gt;&lt;div&gt;&lt;span style=&quot;white-space:pre-wrap;&quot;&gt;[영양성분 서비스] &lt;/span&gt;&lt;/div&gt;&lt;div&gt;&lt;span style=&quot;white-space:pre-wrap;&quot;&gt;회원은 영양성분 전체를 확인 하고 선택할 수 있다.&lt;/span&gt;&lt;/div&gt;&lt;div&gt;&lt;span style=&quot;white-space:pre-wrap;&quot;&gt; &lt;/span&gt;&lt;/div&gt;&lt;div&gt;&lt;span style=&quot;white-space:pre-wrap;&quot;&gt;비회원은 영양성분 중 일부를 확인하고 선택할 수 있다.(전체확인 및 선택 불가능)&lt;/span&gt;&lt;/div&gt;&lt;div&gt;&lt;span style=&quot;white-space:pre-wrap;&quot;&gt;&lt;br&gt;&lt;/span&gt;&lt;/div&gt;&lt;div&gt;&lt;span style=&quot;white-space:pre-wrap;&quot;&gt;----------------------------------------------------------------------------------------------&lt;br&gt;&lt;/span&gt;&lt;/div&gt;&lt;div&gt;&lt;span style=&quot;white-space:pre-wrap;&quot;&gt;&lt;br&gt;&lt;/span&gt;&lt;/div&gt;&lt;div&gt;&lt;div style=&quot;color: rgb(255, 255, 255); background-color: rgb(27, 29, 30);&quot;&gt;&lt;span style=&quot;white-space-collapse: preserve;&quot;&gt;[재료선택 서비스]&lt;/span&gt;&lt;/div&gt;&lt;div style=&quot;color: rgb(255, 255, 255); background-color: rgb(27, 29, 30);&quot;&gt;&lt;span style=&quot;white-space-collapse: preserve;&quot;&gt;&lt;br&gt;&lt;/span&gt;&lt;/div&gt;&lt;div style=&quot;color: rgb(255, 255, 255); background-color: rgb(27, 29, 30);&quot;&gt;&lt;span style=&quot;white-space-collapse: preserve;&quot;&gt;회원은 본인이 선택한 영양성분에 관한 재료를 볼 수 있고 선택할 수 있다.&lt;/span&gt;&lt;/div&gt;&lt;div style=&quot;color: rgb(255, 255, 255); background-color: rgb(27, 29, 30);&quot;&gt;&lt;span style=&quot;white-space-collapse: preserve;&quot;&gt;&lt;br&gt;비회원은 본인이 선택한 영양성분에 관한 재료를 볼 수 있고 선택할 수 있다.&lt;/span&gt;&lt;/div&gt;&lt;/div&gt;&lt;div&gt;&lt;span style=&quot;white-space:pre-wrap;&quot;&gt;&lt;br&gt;&lt;/span&gt;&lt;/div&gt;&lt;div&gt;&lt;span style=&quot;white-space:pre-wrap;&quot;&gt;-----------------------------------------------------------------------------------------------&lt;br&gt;&lt;br&gt;&lt;/span&gt;&lt;/div&gt;&lt;div&gt;&lt;div&gt;&lt;span style=&quot;white-space-collapse: preserve;&quot;&gt;[요리추천 서비스]&lt;/span&gt;&lt;/div&gt;&lt;div&gt;&lt;span style=&quot;white-space-collapse: preserve;&quot;&gt;&lt;br&gt;&lt;/span&gt;&lt;/div&gt;&lt;div&gt;&lt;span style=&quot;white-space-collapse: preserve;&quot;&gt;회원은 본인이 선택한 재료들에 대한 요리추천을 받을 수 있다.&lt;/span&gt;&lt;/div&gt;&lt;div&gt;&lt;span style=&quot;white-space-collapse: preserve;&quot;&gt;&lt;br&gt;비회원이 본인이 선택한 재료들에 대한 요리추천을 받을 수 없다.&lt;/span&gt;&lt;/div&gt;&lt;/div&gt;&lt;div&gt;&lt;span style=&quot;white-space:pre-wrap;&quot;&gt;&lt;br&gt;&lt;/span&gt;&lt;/div&gt;&lt;div&gt;&lt;span style=&quot;white-space:pre-wrap;&quot;&gt;-------------------------------------------------------------------------------------------&lt;/span&gt;&lt;/div&gt;&lt;div&gt;&lt;span style=&quot;white-space:pre-wrap;&quot;&gt;&lt;br&gt;&lt;/span&gt;&lt;/div&gt;&lt;div&gt;&lt;span style=&quot;white-space:pre-wrap;&quot;&gt;[포인트 서비스]&lt;/span&gt;&lt;/div&gt;&lt;div&gt;&lt;span style=&quot;white-space:pre-wrap;&quot;&gt;&lt;br&gt;&lt;/span&gt;&lt;/div&gt;&lt;div&gt;&lt;span style=&quot;white-space:pre-wrap;&quot;&gt;회원은 재료(제품) 구매시 포인트가 적립이된다.&lt;/span&gt;&lt;/div&gt;&lt;div&gt;&lt;span style=&quot;white-space:pre-wrap;&quot;&gt;&lt;br&gt;&lt;/span&gt;&lt;/div&gt;&lt;div&gt;&lt;span style=&quot;white-space:pre-wrap;&quot;&gt;비회원은 재료(제품) 을 구매해도 포인트가 적립되지 않는다.&lt;/span&gt;&lt;/div&gt;&lt;div&gt;&lt;span style=&quot;white-space:pre-wrap;&quot;&gt;&lt;br&gt;&lt;/span&gt;&lt;/div&gt;&lt;div&gt;&lt;span style=&quot;white-space:pre-wrap;&quot;&gt;--------------------------------------------------------------------------------------------------------&lt;br&gt;&lt;br&gt;[상픔 등록서비스]&lt;/span&gt;&lt;/div&gt;&lt;div&gt;&lt;span style=&quot;white-space:pre-wrap;&quot;&gt;&lt;br&gt;&lt;/span&gt;&lt;/div&gt;&lt;div&gt;&lt;span style=&quot;white-space:pre-wrap;&quot;&gt;[판매자]&lt;/span&gt;&lt;/div&gt;&lt;div&gt;&lt;span style=&quot;white-space:pre-wrap;&quot;&gt;&lt;br&gt;판매자는 상품을 등록할 수 있다&lt;/span&gt;&lt;/div&gt;&lt;div&gt;&lt;span style=&quot;white-space:pre-wrap;&quot;&gt;&lt;br&gt;&lt;/span&gt;&lt;/div&gt;&lt;div&gt;&lt;span style=&quot;white-space:pre-wrap;&quot;&gt;판매자는 상품을 삭제할 수 있다.&lt;/span&gt;&lt;/div&gt;&lt;div&gt;&lt;span style=&quot;white-space:pre-wrap;&quot;&gt;&lt;br&gt;&lt;/span&gt;&lt;/div&gt;&lt;div&gt;&lt;span style=&quot;white-space:pre-wrap;&quot;&gt;판매자는 상품을 수정할 수 있다.&lt;/span&gt;&lt;/div&gt;&lt;div&gt;&lt;span style=&quot;white-space:pre-wrap;&quot;&gt;&lt;br&gt;&lt;/span&gt;&lt;/div&gt;&lt;div&gt;&lt;span style=&quot;white-space:pre-wrap;&quot;&gt;[관리자]&lt;/span&gt;&lt;/div&gt;&lt;div&gt;&lt;span style=&quot;white-space:pre-wrap;&quot;&gt;&lt;br&gt;&lt;/span&gt;&lt;/div&gt;&lt;div&gt;&lt;div&gt;&lt;span style=&quot;white-space-collapse: preserve;&quot;&gt;관리자는 상품을 등록할 수 있다&lt;/span&gt;&lt;/div&gt;&lt;div&gt;&lt;span style=&quot;white-space-collapse: preserve;&quot;&gt;&lt;br&gt;&lt;/span&gt;&lt;/div&gt;&lt;div&gt;&lt;span style=&quot;white-space-collapse: preserve; background-color: transparent; color: light-dark(rgb(0, 0, 0), rgb(255, 255, 255));&quot;&gt;관리자는&lt;/span&gt;&lt;span style=&quot;white-space-collapse: preserve;&quot;&gt; 상품을 삭제할 수 있다.&lt;/span&gt;&lt;/div&gt;&lt;div&gt;&lt;span style=&quot;white-space-collapse: preserve;&quot;&gt;&lt;br&gt;&lt;/span&gt;&lt;/div&gt;&lt;div&gt;&lt;span style=&quot;white-space-collapse: preserve; background-color: transparent; color: light-dark(rgb(0, 0, 0), rgb(255, 255, 255));&quot;&gt;관리자는&lt;/span&gt;&lt;span style=&quot;white-space-collapse: preserve;&quot;&gt; 상품을 수정할 수 있다.&lt;/span&gt;&lt;/div&gt;&lt;/div&gt;&lt;div&gt;&lt;span style=&quot;white-space-collapse: preserve;&quot;&gt;&lt;br&gt;&lt;/span&gt;&lt;/div&gt;&lt;div&gt;&lt;span style=&quot;white-space-collapse: preserve;&quot;&gt;관리자는 판매자가 등록한 상품을 수정 삭제할 수 있다.&lt;/span&gt;&lt;/div&gt;&lt;div&gt;&lt;div&gt;&lt;span style=&quot;white-space-collapse: preserve;&quot;&gt; &lt;/span&gt;&lt;/div&gt;&lt;div&gt;&lt;span style=&quot;white-space-collapse: preserve;&quot;&gt; 관리자는 등록된 상품을 조회 할 수있다&lt;/span&gt;&lt;br style=&quot;white-space-collapse: preserve;&quot;&gt;&lt;br&gt;&lt;/div&gt;&lt;/div&gt;&lt;div&gt;&lt;span style=&quot;white-space:pre-wrap;&quot;&gt;&lt;br&gt;&lt;/span&gt;&lt;/div&gt;&lt;div&gt;&lt;span style=&quot;white-space:pre-wrap;&quot;&gt;----------------------------------------------------------------------------------------------------------&lt;/span&gt;&lt;/div&gt;&lt;div&gt;&lt;span style=&quot;white-space:pre-wrap;&quot;&gt;&lt;br&gt;[영양성분 서비스]&lt;/span&gt;&lt;/div&gt;&lt;div&gt;&lt;span style=&quot;white-space:pre-wrap;&quot;&gt;&lt;br&gt;관리자는 영양성분은 등록 및 삭제 할 수 있다&lt;/span&gt;&lt;/div&gt;&lt;div&gt;&lt;span style=&quot;white-space:pre-wrap;&quot;&gt;&lt;br&gt;&lt;/span&gt;&lt;/div&gt;&lt;div&gt;&lt;span style=&quot;white-space:pre-wrap;&quot;&gt;--------------------------------------------------------------------------------------------------------------&lt;/span&gt;&lt;/div&gt;&lt;div&gt;&lt;span style=&quot;white-space:pre-wrap;&quot;&gt;&lt;br&gt;&lt;/span&gt;&lt;/div&gt;&lt;div&gt;&lt;span style=&quot;white-space:pre-wrap;&quot;&gt;&lt;br&gt;&lt;br&gt;&lt;/span&gt;&lt;/div&gt;&lt;/div&gt;&lt;/div&gt;&lt;/div&gt;&lt;/div&gt;&lt;div&gt;&lt;span style=&quot;white-space:pre-wrap;&quot;&gt;[뉴스 서비스]&lt;/span&gt;&lt;/div&gt;&lt;div&gt;&lt;span style=&quot;white-space:pre-wrap;&quot;&gt;&lt;br&gt;&lt;/span&gt;&lt;/div&gt;&lt;div&gt;&lt;span style=&quot;white-space:pre-wrap;&quot;&gt;[회원]&lt;/span&gt;&lt;/div&gt;&lt;div&gt;&lt;span style=&quot;white-space:pre-wrap;&quot;&gt;&lt;br&gt;&lt;/span&gt;&lt;/div&gt;&lt;div&gt;&lt;span style=&quot;white-space:pre-wrap;&quot;&gt;회원은 뉴스 서비스를 볼 수 있다.&lt;/span&gt;&lt;/div&gt;&lt;div&gt;&lt;span style=&quot;white-space:pre-wrap;&quot;&gt;&lt;br&gt;&lt;/span&gt;&lt;/div&gt;&lt;div&gt;&lt;span style=&quot;white-space:pre-wrap;&quot;&gt;회원은 뉴스 서비스에 댓글을 달 수 있다.&lt;/span&gt;&lt;/div&gt;&lt;div&gt;&lt;span style=&quot;white-space:pre-wrap;&quot;&gt;&lt;br&gt;&lt;/span&gt;&lt;/div&gt;&lt;div&gt;&lt;span style=&quot;white-space:pre-wrap;&quot;&gt;[비회원]&lt;/span&gt;&lt;/div&gt;&lt;div&gt;&lt;span style=&quot;white-space:pre-wrap;&quot;&gt;&lt;br&gt;&lt;/span&gt;&lt;/div&gt;&lt;div&gt;&lt;span style=&quot;white-space:pre-wrap;&quot;&gt;비회원은 뉴스 서비스를 볼 수 있다.&lt;/span&gt;&lt;/div&gt;&lt;div&gt;&lt;span style=&quot;white-space:pre-wrap;&quot;&gt;&lt;br&gt;&lt;/span&gt;&lt;/div&gt;&lt;div&gt;&lt;span style=&quot;white-space:pre-wrap;&quot;&gt;비회원은 뉴스 서비스에 댓글을 달 수 없다.&lt;/span&gt;&lt;/div&gt;&lt;div&gt;&lt;span style=&quot;white-space:pre-wrap;&quot;&gt;&lt;br&gt;&lt;/span&gt;&lt;/div&gt;&lt;div&gt;&lt;span style=&quot;white-space:pre-wrap;&quot;&gt;[판매자]&lt;/span&gt;&lt;/div&gt;&lt;div&gt;&lt;span style=&quot;white-space:pre-wrap;&quot;&gt;&lt;br&gt;&lt;/span&gt;&lt;/div&gt;&lt;div&gt;&lt;span style=&quot;white-space:pre-wrap;&quot;&gt;판매자는 뉴스 서비스를 볼 수 있다.&lt;/span&gt;&lt;/div&gt;&lt;div&gt;&lt;span style=&quot;white-space:pre-wrap;&quot;&gt;&lt;br&gt;&lt;/span&gt;&lt;/div&gt;&lt;div&gt;&lt;span style=&quot;white-space:pre-wrap;&quot;&gt;판매자는 뉴스 서비스에 댓글을 달 수 있다.&lt;/span&gt;&lt;/div&gt;&lt;div&gt;&lt;span style=&quot;white-space:pre-wrap;&quot;&gt;&lt;br&gt;&lt;/span&gt;&lt;/div&gt;&lt;div&gt;&lt;span style=&quot;white-space:pre-wrap;&quot;&gt;[관리자]&lt;/span&gt;&lt;/div&gt;&lt;div&gt;&lt;span style=&quot;white-space:pre-wrap;&quot;&gt;&lt;br&gt;&lt;/span&gt;&lt;/div&gt;&lt;div&gt;&lt;span style=&quot;white-space-collapse: preserve;&quot;&gt;관리자는 뉴스 서비스를 볼 수 있다.&lt;/span&gt;&lt;/div&gt;&lt;div&gt;&lt;span style=&quot;white-space-collapse: preserve;&quot;&gt;&lt;br&gt;&lt;/span&gt;&lt;/div&gt;&lt;div&gt;&lt;span style=&quot;white-space-collapse: preserve;&quot;&gt;관리자는 뉴스 서비스에 댓글을 달 수 있다.&lt;/span&gt;&lt;/div&gt;&lt;div&gt;&lt;span style=&quot;white-space-collapse: preserve;&quot;&gt;&lt;br&gt;&lt;/span&gt;&lt;/div&gt;&lt;div&gt;&lt;span style=&quot;white-space-collapse: preserve;&quot;&gt;관리자는 뉴스 서비스에 댓글을 수정 삭제할 수 있다.&lt;/span&gt;&lt;/div&gt;&lt;div&gt;&lt;span style=&quot;white-space:pre-wrap;&quot;&gt;&lt;br&gt;&lt;/span&gt;&lt;/div&gt;&lt;div&gt;&lt;span style=&quot;white-space:pre-wrap;&quot;&gt;&lt;br&gt;&lt;/span&gt;&lt;/div&gt;" style="text;whiteSpace=wrap;html=1;" parent="1" vertex="1">
          <mxGeometry x="-780" y="-1300" width="530" height="2009" as="geometry" />
        </mxCell>
        <mxCell id="xNGF1B88-_GwdK6-crTJ-2" value="&lt;div style=&quot;forced-color-adjust: none; color: rgb(255, 255, 255); font-family: Helvetica; font-size: 12px; font-style: normal; font-variant-ligatures: normal; font-variant-caps: normal; font-weight: 400; letter-spacing: normal; orphans: 2; text-align: left; text-indent: 0px; text-transform: none; widows: 2; word-spacing: 0px; -webkit-text-stroke-width: 0px; white-space: normal; background-color: rgb(27, 29, 30); text-decoration-thickness: initial; text-decoration-style: initial; text-decoration-color: initial; box-shadow: none !important;&quot;&gt;&lt;br&gt;&lt;/div&gt;" style="text;whiteSpace=wrap;html=1;" parent="1" vertex="1">
          <mxGeometry x="560" y="-800" width="430" height="100" as="geometry" />
        </mxCell>
        <mxCell id="xNGF1B88-_GwdK6-crTJ-3" value="유스케이스명 : 회원가입&lt;div&gt;&lt;br&gt;&lt;/div&gt;&lt;div&gt;목표 : 비회원이 회원가입을 할 수 있도록 시스템을 통해 회원가입 절차를 완료한다&lt;br&gt;&lt;div&gt;&lt;br&gt;&lt;/div&gt;&lt;/div&gt;&lt;div&gt;엑터 : 비회원&lt;/div&gt;&lt;div&gt;&lt;br&gt;&lt;/div&gt;&lt;div&gt;사전 조건 : 메인페이지 에서 회원가입 버튼을 클릭하여 회원가입 페이지로 이동한다&lt;/div&gt;&lt;div&gt;&lt;br&gt;&lt;/div&gt;&lt;div&gt;사후 처리 : 회원정상 가입 이후 로그인 페이지로 이동&lt;/div&gt;&lt;div&gt;&lt;br&gt;&lt;/div&gt;&lt;div&gt;기본흐름 :&amp;nbsp;&lt;/div&gt;&lt;div&gt;&lt;br&gt;&lt;/div&gt;&lt;div&gt;1 비회원이 계정 입력란에 email 계정을 입력하고 인증 버튼을 클릭한다&lt;/div&gt;&lt;div&gt;2 시스템은 해당 계정으로 인증코드를 전송한다&lt;/div&gt;&lt;div&gt;3 시스템은 비회원이 보는 페이지에 인증코드 확인폼을 활성화 한다&lt;/div&gt;&lt;div&gt;4 회원은 이메일 인증코드를 인증코드 확 인폼에 입력한 뒤 인증확인 버튼을 클릭한다&lt;/div&gt;&lt;div&gt;5 시스템은 인증확인 처리를 한뒤 인증확인 메시지를 전달한다&lt;/div&gt;&lt;div&gt;6 비회원은&amp;nbsp; 이름/연락처/주소/를 입력하고 회원가입 버튼을 클릭한다&lt;/div&gt;&lt;div&gt;7 시스템은 회원가입 처리 이후 회원가입 완료 메시지를 전달한다&lt;/div&gt;&lt;div&gt;8 비회원이 메시지 확인 버튼을 클릭한다&lt;/div&gt;&lt;div&gt;9 시스템은 로그인 페이지로 이동한다&amp;nbsp;&lt;/div&gt;&lt;div&gt;&lt;br&gt;&lt;/div&gt;&lt;div&gt;&lt;br&gt;&lt;/div&gt;&lt;div&gt;대안흐름 :&amp;nbsp;&lt;br&gt;&lt;/div&gt;&lt;div&gt;&lt;br&gt;&lt;/div&gt;&lt;div&gt;취소버튼를 입력하면 메인화면으로 이동&lt;br&gt;&lt;/div&gt;&lt;div&gt;&lt;br&gt;&lt;/div&gt;&lt;div&gt;&lt;br&gt;&lt;/div&gt;&lt;div&gt;예외흐름 :&amp;nbsp;&lt;/div&gt;&lt;div&gt;&lt;br&gt;&lt;/div&gt;&lt;div&gt;1a 동일한 계정이 있는경우&lt;/div&gt;&lt;div&gt;&lt;span style=&quot;white-space: pre;&quot;&gt;&#x9;&lt;/span&gt;시스템은 &#39;동일한 계정이 있습니다&#39; 라는 메시지를 비회원에게 전달&lt;br&gt;&lt;/div&gt;&lt;div&gt;&lt;br&gt;&lt;/div&gt;&lt;div&gt;1b 인증을 하지않고 회원가입을 하려는 경우&lt;/div&gt;&lt;div&gt;&lt;span style=&quot;white-space: pre;&quot;&gt;&#x9;&lt;/span&gt;시스템은 &#39;인증이 되지 않았습니다&#39; 라는 메시지를 비회원에게 전달&lt;br&gt;&lt;/div&gt;&lt;div&gt;&lt;br&gt;&lt;/div&gt;&lt;div&gt;1c 인증코드 입력 누락시&lt;br&gt;&lt;/div&gt;&lt;div&gt;&lt;span style=&quot;white-space: pre;&quot;&gt;&#x9;&lt;/span&gt;&#39;인증처리를 위한 code를 입력하세요&#39; 메시지를 비회원에게 전달&lt;br&gt;&lt;/div&gt;&lt;div&gt;&lt;br&gt;&lt;/div&gt;&lt;div&gt;&lt;br&gt;&lt;/div&gt;&lt;div&gt;&lt;span style=&quot;background-color: initial;&quot;&gt;1d email형식에 맞지 않는 주소 입력&lt;/span&gt;&lt;br&gt;&lt;/div&gt;&lt;div&gt;&lt;span style=&quot;white-space: pre;&quot;&gt;&#x9;&lt;/span&gt;&#39;올바른 이메일 형식을 입력하세요&#39; 라는&amp;nbsp; 메시지를 비회원에게 전달&lt;br&gt;&lt;/div&gt;&lt;div&gt;&lt;br&gt;&lt;/div&gt;&lt;div&gt;&lt;br&gt;&lt;/div&gt;&lt;div&gt;&lt;br&gt;&lt;/div&gt;&lt;div&gt;&lt;br&gt;&lt;/div&gt;&lt;div&gt;&lt;br&gt;&lt;/div&gt;&lt;div&gt;&lt;span style=&quot;white-space: pre;&quot;&gt;&#x9;&lt;/span&gt;&lt;br&gt;&lt;/div&gt;&lt;div&gt;&lt;br&gt;&lt;/div&gt;&lt;div&gt;&lt;br&gt;&lt;/div&gt;&lt;div&gt;&amp;nbsp;&lt;/div&gt;&lt;div&gt;&lt;br&gt;&lt;/div&gt;" style="text;html=1;align=left;verticalAlign=middle;resizable=0;points=[];autosize=1;strokeColor=none;fillColor=none;" parent="1" vertex="1">
          <mxGeometry x="-150" y="-1230" width="470" height="760" as="geometry" />
        </mxCell>
        <mxCell id="xNGF1B88-_GwdK6-crTJ-5" value="&lt;div&gt;&amp;lt;&amp;lt;유스케이스 명세서&amp;gt;&amp;gt;&lt;/div&gt;유스케이스명 : 회원가입" style="shape=table;startSize=40;container=1;collapsible=1;childLayout=tableLayout;fixedRows=1;rowLines=0;fontStyle=1;align=center;resizeLast=1;html=1;" parent="1" vertex="1">
          <mxGeometry x="400" y="-1250" width="540" height="690" as="geometry" />
        </mxCell>
        <mxCell id="xNGF1B88-_GwdK6-crTJ-6" value="" style="shape=tableRow;horizontal=0;startSize=0;swimlaneHead=0;swimlaneBody=0;fillColor=none;collapsible=0;dropTarget=0;points=[[0,0.5],[1,0.5]];portConstraint=eastwest;top=0;left=0;right=0;bottom=1;strokeColor=default;verticalAlign=middle;fontStyle=0" parent="xNGF1B88-_GwdK6-crTJ-5" vertex="1">
          <mxGeometry y="40" width="540" height="30" as="geometry" />
        </mxCell>
        <mxCell id="xNGF1B88-_GwdK6-crTJ-7" value="목표" style="shape=partialRectangle;connectable=0;fillColor=none;top=0;left=0;bottom=0;right=0;fontStyle=1;overflow=hidden;whiteSpace=wrap;html=1;" parent="xNGF1B88-_GwdK6-crTJ-6" vertex="1">
          <mxGeometry width="60" height="30" as="geometry">
            <mxRectangle width="60" height="30" as="alternateBounds" />
          </mxGeometry>
        </mxCell>
        <mxCell id="xNGF1B88-_GwdK6-crTJ-8" value="&lt;span style=&quot;font-weight: 400; text-wrap: nowrap;&quot;&gt;비회원이 회원가입을 할 수 있도록 시스템을 통해 회원가입 절차를 완료한다&lt;/span&gt;" style="shape=partialRectangle;connectable=0;fillColor=none;top=0;left=0;bottom=0;right=0;align=left;spacingLeft=6;fontStyle=1;overflow=hidden;whiteSpace=wrap;html=1;" parent="xNGF1B88-_GwdK6-crTJ-6" vertex="1">
          <mxGeometry x="60" width="480" height="30" as="geometry">
            <mxRectangle width="480" height="30" as="alternateBounds" />
          </mxGeometry>
        </mxCell>
        <mxCell id="xNGF1B88-_GwdK6-crTJ-9" value="" style="shape=tableRow;horizontal=0;startSize=0;swimlaneHead=0;swimlaneBody=0;fillColor=none;collapsible=0;dropTarget=0;points=[[0,0.5],[1,0.5]];portConstraint=eastwest;top=0;left=0;right=0;bottom=1;" parent="xNGF1B88-_GwdK6-crTJ-5" vertex="1">
          <mxGeometry y="70" width="540" height="30" as="geometry" />
        </mxCell>
        <mxCell id="xNGF1B88-_GwdK6-crTJ-10" value="엑터" style="shape=partialRectangle;connectable=0;fillColor=none;top=0;left=0;bottom=0;right=0;fontStyle=1;overflow=hidden;whiteSpace=wrap;html=1;" parent="xNGF1B88-_GwdK6-crTJ-9" vertex="1">
          <mxGeometry width="60" height="30" as="geometry">
            <mxRectangle width="60" height="30" as="alternateBounds" />
          </mxGeometry>
        </mxCell>
        <mxCell id="xNGF1B88-_GwdK6-crTJ-11" value="비회원" style="shape=partialRectangle;connectable=0;fillColor=none;top=0;left=0;bottom=0;right=0;align=left;spacingLeft=6;fontStyle=0;overflow=hidden;whiteSpace=wrap;html=1;" parent="xNGF1B88-_GwdK6-crTJ-9" vertex="1">
          <mxGeometry x="60" width="480" height="30" as="geometry">
            <mxRectangle width="480" height="30" as="alternateBounds" />
          </mxGeometry>
        </mxCell>
        <mxCell id="xNGF1B88-_GwdK6-crTJ-12" value="" style="shape=tableRow;horizontal=0;startSize=0;swimlaneHead=0;swimlaneBody=0;fillColor=none;collapsible=0;dropTarget=0;points=[[0,0.5],[1,0.5]];portConstraint=eastwest;top=0;left=0;right=0;bottom=1;" parent="xNGF1B88-_GwdK6-crTJ-5" vertex="1">
          <mxGeometry y="100" width="540" height="30" as="geometry" />
        </mxCell>
        <mxCell id="xNGF1B88-_GwdK6-crTJ-13" value="사전 조건" style="shape=partialRectangle;connectable=0;fillColor=none;top=0;left=0;bottom=0;right=0;fontStyle=1;overflow=hidden;whiteSpace=wrap;html=1;" parent="xNGF1B88-_GwdK6-crTJ-12" vertex="1">
          <mxGeometry width="60" height="30" as="geometry">
            <mxRectangle width="60" height="30" as="alternateBounds" />
          </mxGeometry>
        </mxCell>
        <mxCell id="xNGF1B88-_GwdK6-crTJ-14" value="메인페이지에서 회원가입 버튼을 클릭하여 회원가입 페이지로 이동한다" style="shape=partialRectangle;connectable=0;fillColor=none;top=0;left=0;bottom=0;right=0;align=left;spacingLeft=6;fontStyle=0;overflow=hidden;whiteSpace=wrap;html=1;" parent="xNGF1B88-_GwdK6-crTJ-12" vertex="1">
          <mxGeometry x="60" width="480" height="30" as="geometry">
            <mxRectangle width="480" height="30" as="alternateBounds" />
          </mxGeometry>
        </mxCell>
        <mxCell id="xNGF1B88-_GwdK6-crTJ-15" value="" style="shape=tableRow;horizontal=0;startSize=0;swimlaneHead=0;swimlaneBody=0;fillColor=none;collapsible=0;dropTarget=0;points=[[0,0.5],[1,0.5]];portConstraint=eastwest;top=0;left=0;right=0;bottom=1;" parent="xNGF1B88-_GwdK6-crTJ-5" vertex="1">
          <mxGeometry y="130" width="540" height="30" as="geometry" />
        </mxCell>
        <mxCell id="xNGF1B88-_GwdK6-crTJ-16" value="사후 처리" style="shape=partialRectangle;connectable=0;fillColor=none;top=0;left=0;bottom=0;right=0;fontStyle=1;overflow=hidden;whiteSpace=wrap;html=1;" parent="xNGF1B88-_GwdK6-crTJ-15" vertex="1">
          <mxGeometry width="60" height="30" as="geometry">
            <mxRectangle width="60" height="30" as="alternateBounds" />
          </mxGeometry>
        </mxCell>
        <mxCell id="xNGF1B88-_GwdK6-crTJ-17" value="회원 정상 가입 이후 로그인 페이지로 이동" style="shape=partialRectangle;connectable=0;fillColor=none;top=0;left=0;bottom=0;right=0;align=left;spacingLeft=6;fontStyle=0;overflow=hidden;whiteSpace=wrap;html=1;" parent="xNGF1B88-_GwdK6-crTJ-15" vertex="1">
          <mxGeometry x="60" width="480" height="30" as="geometry">
            <mxRectangle width="480" height="30" as="alternateBounds" />
          </mxGeometry>
        </mxCell>
        <mxCell id="xNGF1B88-_GwdK6-crTJ-18" value="" style="shape=tableRow;horizontal=0;startSize=0;swimlaneHead=0;swimlaneBody=0;fillColor=none;collapsible=0;dropTarget=0;points=[[0,0.5],[1,0.5]];portConstraint=eastwest;top=0;left=0;right=0;bottom=1;" parent="xNGF1B88-_GwdK6-crTJ-5" vertex="1">
          <mxGeometry y="160" width="540" height="170" as="geometry" />
        </mxCell>
        <mxCell id="xNGF1B88-_GwdK6-crTJ-19" value="기본흐름" style="shape=partialRectangle;connectable=0;fillColor=none;top=0;left=0;bottom=0;right=0;fontStyle=1;overflow=hidden;whiteSpace=wrap;html=1;" parent="xNGF1B88-_GwdK6-crTJ-18" vertex="1">
          <mxGeometry width="60" height="170" as="geometry">
            <mxRectangle width="60" height="170" as="alternateBounds" />
          </mxGeometry>
        </mxCell>
        <mxCell id="xNGF1B88-_GwdK6-crTJ-20" value="&lt;div style=&quot;text-wrap: nowrap;&quot;&gt;&lt;div&gt;1 비회원이 계정 입력란에 email 계정을 입력하고 인증 버튼을 클릭한다&lt;/div&gt;&lt;div&gt;2 시스템은 해당 계정으로 인증코드를 전송한다&lt;/div&gt;&lt;div&gt;3 시스템은 비회원이 보는 페이지에 인증코드 확인폼을 활성화 한다&lt;/div&gt;&lt;div&gt;4 회원은 이메일 인증코드를 인증코드 확인폼에 입력한 뒤 인증확인 버튼을 클릭한다&lt;/div&gt;&lt;div&gt;5 시스템은 인증확인 처리를 한뒤 인증확인 메시지를 전달한다&lt;/div&gt;&lt;div&gt;6 비회원은&amp;nbsp; 아이디/비밀번호/이름/연락처/주소/를 입력하고 회원가입 버튼을 클릭한다&lt;/div&gt;&lt;div&gt;7 시스템은 회원가입 처리 이후 메시지를 전달한다&lt;/div&gt;&lt;div&gt;8 비회원이 메시지 확인 버튼을 클릭한다&lt;/div&gt;&lt;div&gt;9 시스템은 로그인 페이지로 이동한다&lt;/div&gt;&lt;/div&gt;" style="shape=partialRectangle;connectable=0;fillColor=none;top=0;left=0;bottom=0;right=0;align=left;spacingLeft=6;fontStyle=0;overflow=hidden;whiteSpace=wrap;html=1;" parent="xNGF1B88-_GwdK6-crTJ-18" vertex="1">
          <mxGeometry x="60" width="480" height="170" as="geometry">
            <mxRectangle width="480" height="170" as="alternateBounds" />
          </mxGeometry>
        </mxCell>
        <mxCell id="xNGF1B88-_GwdK6-crTJ-21" value="" style="shape=tableRow;horizontal=0;startSize=0;swimlaneHead=0;swimlaneBody=0;fillColor=none;collapsible=0;dropTarget=0;points=[[0,0.5],[1,0.5]];portConstraint=eastwest;top=0;left=0;right=0;bottom=1;" parent="xNGF1B88-_GwdK6-crTJ-5" vertex="1">
          <mxGeometry y="330" width="540" height="130" as="geometry" />
        </mxCell>
        <mxCell id="xNGF1B88-_GwdK6-crTJ-22" value="대안흐름" style="shape=partialRectangle;connectable=0;fillColor=none;top=0;left=0;bottom=0;right=0;fontStyle=1;overflow=hidden;whiteSpace=wrap;html=1;" parent="xNGF1B88-_GwdK6-crTJ-21" vertex="1">
          <mxGeometry width="60" height="130" as="geometry">
            <mxRectangle width="60" height="130" as="alternateBounds" />
          </mxGeometry>
        </mxCell>
        <mxCell id="xNGF1B88-_GwdK6-crTJ-23" value="&lt;div&gt;취소 버튼를 입력하면 메인 화면으로 이동&lt;/div&gt;" style="shape=partialRectangle;connectable=0;fillColor=none;top=0;left=0;bottom=0;right=0;align=left;spacingLeft=6;fontStyle=0;overflow=hidden;whiteSpace=wrap;html=1;" parent="xNGF1B88-_GwdK6-crTJ-21" vertex="1">
          <mxGeometry x="60" width="480" height="130" as="geometry">
            <mxRectangle width="480" height="130" as="alternateBounds" />
          </mxGeometry>
        </mxCell>
        <mxCell id="xNGF1B88-_GwdK6-crTJ-24" value="" style="shape=tableRow;horizontal=0;startSize=0;swimlaneHead=0;swimlaneBody=0;fillColor=none;collapsible=0;dropTarget=0;points=[[0,0.5],[1,0.5]];portConstraint=eastwest;top=0;left=0;right=0;bottom=1;" parent="xNGF1B88-_GwdK6-crTJ-5" vertex="1">
          <mxGeometry y="460" width="540" height="230" as="geometry" />
        </mxCell>
        <mxCell id="xNGF1B88-_GwdK6-crTJ-25" value="예외흐름" style="shape=partialRectangle;connectable=0;fillColor=none;top=0;left=0;bottom=0;right=0;fontStyle=1;overflow=hidden;whiteSpace=wrap;html=1;" parent="xNGF1B88-_GwdK6-crTJ-24" vertex="1">
          <mxGeometry width="60" height="230" as="geometry">
            <mxRectangle width="60" height="230" as="alternateBounds" />
          </mxGeometry>
        </mxCell>
        <mxCell id="xNGF1B88-_GwdK6-crTJ-26" value="&lt;div style=&quot;text-wrap: nowrap;&quot;&gt;1a 동일한 계정이 있는경우&lt;/div&gt;&lt;div style=&quot;text-wrap: nowrap;&quot;&gt;&lt;span style=&quot;white-space-collapse: preserve;&quot;&gt;&#x9;&lt;/span&gt;시스템은 &#39;동일한 계정이 있습니다&#39; 라는 메시지를 비회원에게 전달&lt;br&gt;&lt;/div&gt;&lt;div style=&quot;text-wrap: nowrap;&quot;&gt;&lt;br&gt;&lt;/div&gt;&lt;div style=&quot;text-wrap: nowrap;&quot;&gt;1b 인증을 하지않고 회원가입을 하려는 경우&lt;/div&gt;&lt;div style=&quot;text-wrap: nowrap;&quot;&gt;&lt;span style=&quot;white-space-collapse: preserve;&quot;&gt;&#x9;&lt;/span&gt;시스템은 &#39;인증이 되지 않았습니다&#39; 라는 메시지를 비회원에게 전달&lt;br&gt;&lt;/div&gt;&lt;div style=&quot;text-wrap: nowrap;&quot;&gt;&lt;br&gt;&lt;/div&gt;&lt;div style=&quot;text-wrap: nowrap;&quot;&gt;1c 인증코드 입력 누락시&lt;br&gt;&lt;/div&gt;&lt;div style=&quot;text-wrap: nowrap;&quot;&gt;&lt;span style=&quot;white-space-collapse: preserve;&quot;&gt;&#x9;&lt;/span&gt;&#39;인증처리를 위한 code를 입력하세요&#39; 메시지를 비회원에게 전달&lt;br&gt;&lt;/div&gt;&lt;div style=&quot;text-wrap: nowrap;&quot;&gt;&lt;br&gt;&lt;/div&gt;&lt;div style=&quot;text-wrap: nowrap;&quot;&gt;&lt;span style=&quot;background-color: initial;&quot;&gt;1d email형식에 맞지 않는 주소 입력&lt;/span&gt;&lt;br&gt;&lt;/div&gt;&lt;div style=&quot;text-wrap: nowrap;&quot;&gt;&lt;span style=&quot;white-space-collapse: preserve;&quot;&gt;&#x9;&lt;/span&gt;&#39;올바른 이메일 형식을 입력하세요&#39; 라는 메시지를 비회원에게 전달&lt;/div&gt;" style="shape=partialRectangle;connectable=0;fillColor=none;top=0;left=0;bottom=0;right=0;align=left;spacingLeft=6;fontStyle=0;overflow=hidden;whiteSpace=wrap;html=1;" parent="xNGF1B88-_GwdK6-crTJ-24" vertex="1">
          <mxGeometry x="60" width="480" height="230" as="geometry">
            <mxRectangle width="480" height="230" as="alternateBounds" />
          </mxGeometry>
        </mxCell>
        <mxCell id="xNGF1B88-_GwdK6-crTJ-27" value="유스케이스명 : 상품 구매&lt;div&gt;&lt;br&gt;&lt;/div&gt;&lt;div&gt;목표 : 회원이 상품을 선택해서 결제하여 구매를 완료한다.&lt;br&gt;&lt;div&gt;&lt;br&gt;&lt;/div&gt;&lt;/div&gt;&lt;div&gt;엑터 : 회원&lt;/div&gt;&lt;div&gt;&lt;br&gt;&lt;/div&gt;&lt;div&gt;사전 조건 : 회원은 상품을 구매하기 버튼을 누르기 전이다.&lt;/div&gt;&lt;div&gt;&lt;br&gt;&lt;/div&gt;&lt;div&gt;사후 처리 : 결제완료 후 주문 내역으로 이동&lt;/div&gt;&lt;div&gt;&amp;nbsp;&lt;/div&gt;&lt;div&gt;기본흐름 :&amp;nbsp;&lt;/div&gt;&lt;div&gt;&lt;br&gt;&lt;/div&gt;&lt;div&gt;1. 사용자가 구매하기 버튼을 클릭한다.&lt;/div&gt;&lt;div&gt;2. 사용자가 장바구니 페이지로 이동한다.&lt;/div&gt;&lt;div&gt;1. 사용자가 장바구니 페이지의 주문하기 버튼을 클릭한다.&lt;/div&gt;&lt;div&gt;2. 로그인 페이지로 이동한다.&lt;/div&gt;&lt;div&gt;3. 시스템은 주문서 페이지를 표시한다.&lt;/div&gt;&lt;div&gt;4. 사용자는 개인정보(이름, 전화번호. 주소)를 입력한다.&lt;/div&gt;&lt;div&gt;5. 사용자는 결제방법(카드결제. 계좌이체, 무통장 입금)을 선택한다&lt;/div&gt;&lt;div&gt;6. 사용자가 결제하기 버튼을 클릭한다.&lt;/div&gt;&lt;div&gt;7. 시스템은 결제 정보를 확인하고 결제를 진행한다.&lt;/div&gt;&lt;div&gt;8. 결제가 완료되면 결제 완료 메시지를 보여준다.&lt;/div&gt;&lt;div&gt;9. 사용자가 확인 버튼을 클릭한다&lt;/div&gt;&lt;div&gt;10. 시스템은 주문내역 페이지로 이동한다.&lt;/div&gt;&lt;div&gt;&lt;br&gt;&lt;/div&gt;&lt;div&gt;대안흐름 :&amp;nbsp;&lt;br&gt;&lt;/div&gt;&lt;div&gt;&lt;br&gt;&lt;/div&gt;&lt;div&gt;a.&amp;nbsp; 회원이 로그인을 하지 않았을 시 :&amp;nbsp; 로그인 페이지로 이동&lt;/div&gt;&lt;div&gt;&lt;br&gt;&lt;/div&gt;&lt;div&gt;b.&amp;nbsp; 결제수단 변경 시 : 결제 단계에서 결제수단 변경을 하면 해당 내용이 적용된다.&lt;/div&gt;&lt;div&gt;&lt;br&gt;&lt;/div&gt;&lt;div&gt;c. 결제 취소 시&amp;nbsp; :&amp;nbsp; 사용자가 결제 단계에서 결제 취소를 누르면 장바구니 페이지로 돌아간다.&lt;/div&gt;&lt;div&gt;&lt;br&gt;&lt;/div&gt;&lt;div&gt;&lt;br&gt;&lt;/div&gt;&lt;div&gt;예외흐름 :&amp;nbsp;&lt;/div&gt;&lt;div&gt;&lt;br&gt;&lt;/div&gt;&lt;div&gt;1a&amp;nbsp; :&amp;nbsp; 배송정보 미입력 경우&lt;/div&gt;&lt;div&gt;&lt;span style=&quot;white-space: pre;&quot;&gt;&#x9;&lt;/span&gt;&lt;span style=&quot;white-space: pre;&quot;&gt;&#x9;&lt;/span&gt;시스템은 &#39;배송정보 입력을 하세요&#39; 라는 메시지를&amp;nbsp; 회원, 비회원에게 전달&lt;br&gt;&lt;/div&gt;&lt;div&gt;&lt;br&gt;&lt;/div&gt;&lt;div&gt;&lt;br&gt;&lt;/div&gt;&lt;div&gt;1b&amp;nbsp; :&amp;nbsp; 결제 수단 미선택일 경우&lt;/div&gt;&lt;div&gt;&lt;span style=&quot;white-space: pre;&quot;&gt;&#x9;&lt;/span&gt;시스템은 &#39;결제 수단을 선택하세요&amp;nbsp; &#39; 라는 메시지를 회원 ,비회원에게 전달&lt;br&gt;&lt;/div&gt;&lt;div&gt;&lt;br&gt;&lt;/div&gt;&lt;div&gt;1c 결제 실패 오류의 경우(카드 한도 초과, 카드 잔액 부족 등)&lt;br&gt;&lt;/div&gt;&lt;div&gt;&lt;span style=&quot;white-space: pre;&quot;&gt;&#x9;&lt;/span&gt;&#39;카드 한도가 초과되었습니다&#39; 메시지를 회원, 비회원에게 전달&lt;br&gt;&lt;/div&gt;&lt;div&gt;&lt;span style=&quot;white-space: pre;&quot;&gt;&#x9;&lt;/span&gt;&#39;카드 잔액이 부족합니다&#39; 메시지를 회원, 비회원에게 전달&lt;br&gt;&lt;/div&gt;&lt;div&gt;&lt;br&gt;&lt;/div&gt;&lt;div&gt;1d : 구매클릭시 재고가 없는 경우&lt;/div&gt;&lt;div&gt;&lt;span style=&quot;white-space: pre;&quot;&gt;&#x9;&lt;/span&gt;&lt;span style=&quot;white-space: pre;&quot;&gt;&#x9;&lt;/span&gt;시스템은 &#39;제고가 없습니다&#39;라는 메시지를 전달&lt;br&gt;&lt;/div&gt;&lt;div&gt;&lt;br&gt;&lt;/div&gt;&lt;div&gt;&amp;nbsp; &amp;nbsp; &amp;nbsp; &amp;nbsp;&lt;/div&gt;&lt;div&gt;&lt;br&gt;&lt;/div&gt;&lt;div&gt;&lt;br&gt;&lt;/div&gt;&lt;div&gt;&lt;span style=&quot;white-space: pre;&quot;&gt;&#x9;&lt;/span&gt;&lt;br&gt;&lt;/div&gt;&lt;div&gt;&lt;br&gt;&lt;/div&gt;&lt;div&gt;&lt;br&gt;&lt;/div&gt;&lt;div&gt;&amp;nbsp;&lt;/div&gt;&lt;div&gt;&lt;br&gt;&lt;/div&gt;" style="text;html=1;align=left;verticalAlign=middle;resizable=0;points=[];autosize=1;strokeColor=none;fillColor=none;" parent="1" vertex="1">
          <mxGeometry x="-170" y="-505" width="510" height="850" as="geometry" />
        </mxCell>
        <mxCell id="xNGF1B88-_GwdK6-crTJ-28" value="&lt;div&gt;&amp;lt;&amp;lt;유스케이스 명세서&amp;gt;&amp;gt;&lt;/div&gt;유스케이스명 : 상품 구매&amp;nbsp;" style="shape=table;startSize=40;container=1;collapsible=1;childLayout=tableLayout;fixedRows=1;rowLines=0;fontStyle=1;align=center;resizeLast=1;html=1;" parent="1" vertex="1">
          <mxGeometry x="470" y="-460" width="510" height="1070" as="geometry" />
        </mxCell>
        <mxCell id="xNGF1B88-_GwdK6-crTJ-29" value="" style="shape=tableRow;horizontal=0;startSize=0;swimlaneHead=0;swimlaneBody=0;fillColor=none;collapsible=0;dropTarget=0;points=[[0,0.5],[1,0.5]];portConstraint=eastwest;top=0;left=0;right=0;bottom=1;strokeColor=default;verticalAlign=middle;fontStyle=0" parent="xNGF1B88-_GwdK6-crTJ-28" vertex="1">
          <mxGeometry y="40" width="510" height="30" as="geometry" />
        </mxCell>
        <mxCell id="xNGF1B88-_GwdK6-crTJ-30" value="목표" style="shape=partialRectangle;connectable=0;fillColor=none;top=0;left=0;bottom=0;right=0;fontStyle=1;overflow=hidden;whiteSpace=wrap;html=1;" parent="xNGF1B88-_GwdK6-crTJ-29" vertex="1">
          <mxGeometry width="60" height="30" as="geometry">
            <mxRectangle width="60" height="30" as="alternateBounds" />
          </mxGeometry>
        </mxCell>
        <mxCell id="xNGF1B88-_GwdK6-crTJ-31" value="&lt;span style=&quot;font-weight: 400; text-wrap: nowrap;&quot;&gt;회원이 상품을 선택해서 결제하여 구매를 완료한다&lt;/span&gt;" style="shape=partialRectangle;connectable=0;fillColor=none;top=0;left=0;bottom=0;right=0;align=left;spacingLeft=6;fontStyle=1;overflow=hidden;whiteSpace=wrap;html=1;" parent="xNGF1B88-_GwdK6-crTJ-29" vertex="1">
          <mxGeometry x="60" width="450" height="30" as="geometry">
            <mxRectangle width="450" height="30" as="alternateBounds" />
          </mxGeometry>
        </mxCell>
        <mxCell id="xNGF1B88-_GwdK6-crTJ-32" value="" style="shape=tableRow;horizontal=0;startSize=0;swimlaneHead=0;swimlaneBody=0;fillColor=none;collapsible=0;dropTarget=0;points=[[0,0.5],[1,0.5]];portConstraint=eastwest;top=0;left=0;right=0;bottom=1;" parent="xNGF1B88-_GwdK6-crTJ-28" vertex="1">
          <mxGeometry y="70" width="510" height="30" as="geometry" />
        </mxCell>
        <mxCell id="xNGF1B88-_GwdK6-crTJ-33" value="엑터" style="shape=partialRectangle;connectable=0;fillColor=none;top=0;left=0;bottom=0;right=0;fontStyle=1;overflow=hidden;whiteSpace=wrap;html=1;" parent="xNGF1B88-_GwdK6-crTJ-32" vertex="1">
          <mxGeometry width="60" height="30" as="geometry">
            <mxRectangle width="60" height="30" as="alternateBounds" />
          </mxGeometry>
        </mxCell>
        <mxCell id="xNGF1B88-_GwdK6-crTJ-34" value="&lt;span style=&quot;text-wrap: nowrap;&quot;&gt;회원&lt;/span&gt;" style="shape=partialRectangle;connectable=0;fillColor=none;top=0;left=0;bottom=0;right=0;align=left;spacingLeft=6;fontStyle=0;overflow=hidden;whiteSpace=wrap;html=1;" parent="xNGF1B88-_GwdK6-crTJ-32" vertex="1">
          <mxGeometry x="60" width="450" height="30" as="geometry">
            <mxRectangle width="450" height="30" as="alternateBounds" />
          </mxGeometry>
        </mxCell>
        <mxCell id="xNGF1B88-_GwdK6-crTJ-35" value="" style="shape=tableRow;horizontal=0;startSize=0;swimlaneHead=0;swimlaneBody=0;fillColor=none;collapsible=0;dropTarget=0;points=[[0,0.5],[1,0.5]];portConstraint=eastwest;top=0;left=0;right=0;bottom=1;" parent="xNGF1B88-_GwdK6-crTJ-28" vertex="1">
          <mxGeometry y="100" width="510" height="30" as="geometry" />
        </mxCell>
        <mxCell id="xNGF1B88-_GwdK6-crTJ-36" value="사전 조건" style="shape=partialRectangle;connectable=0;fillColor=none;top=0;left=0;bottom=0;right=0;fontStyle=1;overflow=hidden;whiteSpace=wrap;html=1;" parent="xNGF1B88-_GwdK6-crTJ-35" vertex="1">
          <mxGeometry width="60" height="30" as="geometry">
            <mxRectangle width="60" height="30" as="alternateBounds" />
          </mxGeometry>
        </mxCell>
        <mxCell id="xNGF1B88-_GwdK6-crTJ-37" value="&lt;span style=&quot;text-wrap: nowrap;&quot;&gt;회원은 상품을 구매하기 버튼을 누르기 전이다.&lt;/span&gt;" style="shape=partialRectangle;connectable=0;fillColor=none;top=0;left=0;bottom=0;right=0;align=left;spacingLeft=6;fontStyle=0;overflow=hidden;whiteSpace=wrap;html=1;" parent="xNGF1B88-_GwdK6-crTJ-35" vertex="1">
          <mxGeometry x="60" width="450" height="30" as="geometry">
            <mxRectangle width="450" height="30" as="alternateBounds" />
          </mxGeometry>
        </mxCell>
        <mxCell id="xNGF1B88-_GwdK6-crTJ-38" value="" style="shape=tableRow;horizontal=0;startSize=0;swimlaneHead=0;swimlaneBody=0;fillColor=none;collapsible=0;dropTarget=0;points=[[0,0.5],[1,0.5]];portConstraint=eastwest;top=0;left=0;right=0;bottom=1;" parent="xNGF1B88-_GwdK6-crTJ-28" vertex="1">
          <mxGeometry y="130" width="510" height="30" as="geometry" />
        </mxCell>
        <mxCell id="xNGF1B88-_GwdK6-crTJ-39" value="사후 처리" style="shape=partialRectangle;connectable=0;fillColor=none;top=0;left=0;bottom=0;right=0;fontStyle=1;overflow=hidden;whiteSpace=wrap;html=1;" parent="xNGF1B88-_GwdK6-crTJ-38" vertex="1">
          <mxGeometry width="60" height="30" as="geometry">
            <mxRectangle width="60" height="30" as="alternateBounds" />
          </mxGeometry>
        </mxCell>
        <mxCell id="xNGF1B88-_GwdK6-crTJ-40" value="&lt;span style=&quot;text-wrap: nowrap;&quot;&gt;결제완료 후 주문 내역으로 이동&lt;/span&gt;" style="shape=partialRectangle;connectable=0;fillColor=none;top=0;left=0;bottom=0;right=0;align=left;spacingLeft=6;fontStyle=0;overflow=hidden;whiteSpace=wrap;html=1;" parent="xNGF1B88-_GwdK6-crTJ-38" vertex="1">
          <mxGeometry x="60" width="450" height="30" as="geometry">
            <mxRectangle width="450" height="30" as="alternateBounds" />
          </mxGeometry>
        </mxCell>
        <mxCell id="xNGF1B88-_GwdK6-crTJ-41" value="" style="shape=tableRow;horizontal=0;startSize=0;swimlaneHead=0;swimlaneBody=0;fillColor=none;collapsible=0;dropTarget=0;points=[[0,0.5],[1,0.5]];portConstraint=eastwest;top=0;left=0;right=0;bottom=1;" parent="xNGF1B88-_GwdK6-crTJ-28" vertex="1">
          <mxGeometry y="160" width="510" height="380" as="geometry" />
        </mxCell>
        <mxCell id="xNGF1B88-_GwdK6-crTJ-42" value="기본흐름" style="shape=partialRectangle;connectable=0;fillColor=none;top=0;left=0;bottom=0;right=0;fontStyle=1;overflow=hidden;whiteSpace=wrap;html=1;" parent="xNGF1B88-_GwdK6-crTJ-41" vertex="1">
          <mxGeometry width="60" height="380" as="geometry">
            <mxRectangle width="60" height="380" as="alternateBounds" />
          </mxGeometry>
        </mxCell>
        <mxCell id="xNGF1B88-_GwdK6-crTJ-43" value="&lt;div style=&quot;text-wrap: nowrap;&quot;&gt;&lt;div&gt;1. 사용자가 구매하기 버튼을 클릭한다.&lt;/div&gt;&lt;div&gt;&lt;br&gt;&lt;/div&gt;&lt;div&gt;2. 사용자가 장바구니 페이지로 이동한다.&lt;/div&gt;&lt;div&gt;&lt;br&gt;&lt;/div&gt;&lt;div&gt;3. 사용자가 장바구니 페이지의 주문하기 버튼을 클릭한다.&lt;/div&gt;&lt;div&gt;&lt;br&gt;&lt;/div&gt;&lt;div&gt;4. 로그인 페이지로 이동한다.&lt;/div&gt;&lt;div&gt;&lt;br&gt;&lt;/div&gt;&lt;div&gt;5. 시스템은 주문서 페이지를 표시한다.&lt;/div&gt;&lt;div&gt;&lt;br&gt;&lt;/div&gt;&lt;div&gt;6. 사용자는 개인정보(이름, 전화번호. 주소)를 입력한다.&lt;/div&gt;&lt;div&gt;&lt;br&gt;&lt;/div&gt;&lt;div&gt;7. 사용자는 결제방법(카드결제. 계좌이체, 무통장 입금)을 선택한다&lt;/div&gt;&lt;div&gt;&lt;br&gt;&lt;/div&gt;&lt;div&gt;8. 사용자가 결제하기 버튼을 클릭한다.&lt;/div&gt;&lt;div&gt;&lt;br&gt;&lt;/div&gt;&lt;div&gt;9. 시스템은 결제 정보를 확인하고 결제를 진행한다.&lt;/div&gt;&lt;div&gt;&lt;br&gt;&lt;/div&gt;&lt;div&gt;10. 결제가 완료되면 결제 완료 메시지를 보여준다.&lt;/div&gt;&lt;div&gt;&lt;br&gt;&lt;/div&gt;&lt;div&gt;11. 사용자가 확인 버튼을 클릭한다&lt;/div&gt;&lt;div&gt;&lt;br&gt;&lt;/div&gt;&lt;div&gt;12. 시스템은 주문내역 페이지로 이동한다.&lt;/div&gt;&lt;/div&gt;" style="shape=partialRectangle;connectable=0;fillColor=none;top=0;left=0;bottom=0;right=0;align=left;spacingLeft=6;fontStyle=0;overflow=hidden;whiteSpace=wrap;html=1;" parent="xNGF1B88-_GwdK6-crTJ-41" vertex="1">
          <mxGeometry x="60" width="450" height="380" as="geometry">
            <mxRectangle width="450" height="380" as="alternateBounds" />
          </mxGeometry>
        </mxCell>
        <mxCell id="xNGF1B88-_GwdK6-crTJ-44" value="" style="shape=tableRow;horizontal=0;startSize=0;swimlaneHead=0;swimlaneBody=0;fillColor=none;collapsible=0;dropTarget=0;points=[[0,0.5],[1,0.5]];portConstraint=eastwest;top=0;left=0;right=0;bottom=1;" parent="xNGF1B88-_GwdK6-crTJ-28" vertex="1">
          <mxGeometry y="540" width="510" height="220" as="geometry" />
        </mxCell>
        <mxCell id="xNGF1B88-_GwdK6-crTJ-45" value="대안흐름" style="shape=partialRectangle;connectable=0;fillColor=none;top=0;left=0;bottom=0;right=0;fontStyle=1;overflow=hidden;whiteSpace=wrap;html=1;" parent="xNGF1B88-_GwdK6-crTJ-44" vertex="1">
          <mxGeometry width="60" height="220" as="geometry">
            <mxRectangle width="60" height="220" as="alternateBounds" />
          </mxGeometry>
        </mxCell>
        <mxCell id="xNGF1B88-_GwdK6-crTJ-46" value="&lt;div style=&quot;text-wrap: nowrap;&quot;&gt;a.&amp;nbsp; 회원이 로그인을 하지 않았을 시 :&amp;nbsp; 로그인 페이지로 이동&lt;/div&gt;&lt;div style=&quot;text-wrap: nowrap;&quot;&gt;&lt;br&gt;&lt;/div&gt;&lt;div style=&quot;text-wrap: nowrap;&quot;&gt;b.&amp;nbsp; 결제수단 변경 시 : 결제 단계에서 결제수단 변경을 하면 해당 내용이 적용된다.&lt;/div&gt;&lt;div style=&quot;text-wrap: nowrap;&quot;&gt;&lt;br&gt;&lt;/div&gt;&lt;div style=&quot;text-wrap: nowrap;&quot;&gt;c. 결제&amp;nbsp; 취소 시&amp;nbsp; :&amp;nbsp; 사용자가 결제 단계에서 결제 취소를 누르면 장바구니 페이지로 돌아간다.&lt;/div&gt;" style="shape=partialRectangle;connectable=0;fillColor=none;top=0;left=0;bottom=0;right=0;align=left;spacingLeft=6;fontStyle=0;overflow=hidden;whiteSpace=wrap;html=1;" parent="xNGF1B88-_GwdK6-crTJ-44" vertex="1">
          <mxGeometry x="60" width="450" height="220" as="geometry">
            <mxRectangle width="450" height="220" as="alternateBounds" />
          </mxGeometry>
        </mxCell>
        <mxCell id="xNGF1B88-_GwdK6-crTJ-47" value="" style="shape=tableRow;horizontal=0;startSize=0;swimlaneHead=0;swimlaneBody=0;fillColor=none;collapsible=0;dropTarget=0;points=[[0,0.5],[1,0.5]];portConstraint=eastwest;top=0;left=0;right=0;bottom=1;" parent="xNGF1B88-_GwdK6-crTJ-28" vertex="1">
          <mxGeometry y="760" width="510" height="280" as="geometry" />
        </mxCell>
        <mxCell id="xNGF1B88-_GwdK6-crTJ-48" value="예외흐름" style="shape=partialRectangle;connectable=0;fillColor=none;top=0;left=0;bottom=0;right=0;fontStyle=1;overflow=hidden;whiteSpace=wrap;html=1;" parent="xNGF1B88-_GwdK6-crTJ-47" vertex="1">
          <mxGeometry width="60" height="280" as="geometry">
            <mxRectangle width="60" height="280" as="alternateBounds" />
          </mxGeometry>
        </mxCell>
        <mxCell id="xNGF1B88-_GwdK6-crTJ-49" value="&lt;div style=&quot;text-wrap: nowrap;&quot;&gt;&lt;br&gt;&lt;/div&gt;&lt;div style=&quot;text-wrap: nowrap;&quot;&gt;&lt;div&gt;1a&amp;nbsp; :&amp;nbsp; 배송정보 미입력 경우&lt;/div&gt;&lt;div&gt;&lt;span style=&quot;white-space-collapse: preserve;&quot;&gt;&#x9;&lt;/span&gt;&lt;span style=&quot;white-space-collapse: preserve;&quot;&gt;&#x9;&lt;/span&gt;시스템은 &#39;배송정보 입력을 하세요&#39; 라는 메시지를&amp;nbsp; 회원, 비회원에게 전달&lt;br&gt;&lt;/div&gt;&lt;div&gt;&lt;br&gt;&lt;/div&gt;&lt;div&gt;&lt;br&gt;&lt;/div&gt;&lt;div&gt;1b&amp;nbsp; :&amp;nbsp; 결제 수단 미선택일 경우&lt;/div&gt;&lt;div&gt;&lt;span style=&quot;white-space-collapse: preserve;&quot;&gt;&#x9;&lt;/span&gt;시스템은 &#39;결제 수단을 선택하세요&amp;nbsp; &#39; 라는 메시지를 회원 ,비회원에게 전달&lt;br&gt;&lt;/div&gt;&lt;div&gt;&lt;br&gt;&lt;/div&gt;&lt;div&gt;1c 결제 실패 오류의 경우(카드 한도 초과, 카드 잔액 부족 등)&lt;br&gt;&lt;/div&gt;&lt;div&gt;&lt;span style=&quot;white-space-collapse: preserve;&quot;&gt;&#x9;&lt;/span&gt;&#39;카드 한도가 초과되었습니다&#39; 메시지를 회원, 비회원에게 전달&lt;br&gt;&lt;/div&gt;&lt;div&gt;&lt;span style=&quot;white-space-collapse: preserve;&quot;&gt;&#x9;&lt;/span&gt;&#39;카드 잔액이 부족합니다&#39; 메시지를 회원, 비회원에게 전달&lt;/div&gt;&lt;div&gt;&lt;br&gt;&lt;/div&gt;&lt;div&gt;&lt;div&gt;1d : 구매클릭시 재고가 없는 경우&lt;/div&gt;&lt;div&gt;&lt;span style=&quot;white-space-collapse: preserve;&quot;&gt;&#x9;&lt;/span&gt;&lt;span style=&quot;white-space-collapse: preserve;&quot;&gt;&#x9;&lt;/span&gt;시스템은 &#39;제고가 없습니다&#39;라는 메시지를 전달&lt;/div&gt;&lt;/div&gt;&lt;/div&gt;" style="shape=partialRectangle;connectable=0;fillColor=none;top=0;left=0;bottom=0;right=0;align=left;spacingLeft=6;fontStyle=0;overflow=hidden;whiteSpace=wrap;html=1;" parent="xNGF1B88-_GwdK6-crTJ-47" vertex="1">
          <mxGeometry x="60" width="450" height="280" as="geometry">
            <mxRectangle width="450" height="280" as="alternateBounds" />
          </mxGeometry>
        </mxCell>
      </root>
    </mxGraphModel>
  </diagram>
</mxfile>
